<svg id="track" data-name="track" xmlns="http://www.w3.org/2000/svg" viewBox="0 0 111.99562 99.88413">
    <path class="parcel" fill="none" stroke="currentColor" stroke-width="2" d="M45.43 43.76967L1 22.43967M45.43 43.76967v41.56M89.69 22.43967l-44.26 21.33M66.19 11.15967l-44.26 21.33M89.69 41.18V22.44L45.39 1.11 1 22.44V65.1l44.39 21.33 12.51-6.02"/>
    <path class="srch" fill="none" stroke="currentColor" stroke-width="2" d="M90.83 71.8l19.78 20.61-5.78 6.03-19.79-20.61M87.24 47.69967a19.74 19.74 0 0 1 0 27.12 17.9 17.9 0 0 1-25.30488.69512q-.357-.338-.69512-.69512a19.74 19.74 0 0 1 0-27.12 17.9 17.9 0 0 1 25.30488-.69512q.35705.33796.69512.69512z"/>
</svg>
