<svg xmlns="http://www.w3.org/2000/svg" viewBox="0 0 105.69275 85.44504">
  <g id="parcel" fill="none" stroke="currentColor" stroke-miterlimit="10">
    <path d="M55.37508 51.83L10.99947 30.52611a.038.038 0 0 0-.05439.03422v41.37084a.038.038 0 0 0 .02147.03419L55.37508 93.39" transform="translate(-10.44508 -8.43783)"/>
    <path d="M74.77092 29.01108L44.93 43.39217M65.69 10.78216l-44.26 21.33"/>
    <path d="M55.37508 51.83v41.54043a.01243.01243 0 0 0 .01772.01125L99.63509 72.61V46.50275M10.94508 30.5L53.04292 9.17774a2.22341 2.22341 0 0 1 1.94051-.03334l22.52165 10.45081 7.71092 3.66544" transform="translate(-10.44508 -8.43783)"/>
  </g>
  <g id="plus" fill="none" stroke="currentColor" stroke-miterlimit="10">
    <path stroke-width="4" d="M99.205 22.06217h-20.03M89.19 12.08217v20.02999"/>
    <circle cx="89.19" cy="22.06217" r="16.00275"/>
  </g>
</svg>
